<?xml version="1.0" encoding="utf-8"?>
<!-- Generator: Adobe Illustrator 26.5.3, SVG Export Plug-In . SVG Version: 6.00 Build 0)  -->
<svg version="1.1" xmlns="http://www.w3.org/2000/svg" xmlns:xlink="http://www.w3.org/1999/xlink" x="0px" y="0px"
	 viewBox="0 0 196.2 31.7" style="enable-background:new 0 0 196.2 31.7;" xml:space="preserve">
<style type="text/css">
	.st0{fill:#14152A;}
</style>
<g id="LOGO">
	<g>
		<g>
			<g>
				<g>
					<path class="st0" d="M32.7,1.5H1.6v4.7h29.7c0.9,0,1.5,0.6,1.5,1.5V24c0,0.9-0.6,1.5-1.5,1.5H7.8c-0.9,0-1.5-0.6-1.5-1.5v-6.6
						c0-0.9,0.6-1.5,1.5-1.5h20.1v-4.7H6.3c-2.7,0-4.7,2.1-4.7,4.7v9.6c0,2.7,2,4.7,4.7,4.7h26.4c2.7,0,4.7-2.1,4.7-4.7V6.3
						C37.4,3.6,35.4,1.5,32.7,1.5z"/>
				</g>
				<g>
					<g>
						<path class="st0" d="M115.8,15v-0.2c4.3-0.5,6.9-2.9,6.9-6.7c0-4.6-3.7-6.6-8.9-6.6h-12.1v0.2c0.9,1,1.5,2.3,1.5,4.2v19.7
							c0,1.9-0.5,3.2-1.5,4.2v0.2h13c5.7,0,9.5-3,9.5-8C124.2,17.4,120.6,15.3,115.8,15z M112.5,27.2h-5V4.6h4.8
							c2.9,0,5.8,0.9,5.8,4.3c0,3.4-2.9,4.7-5.9,4.7h-2.4v3h2.6c3.3,0,7.3,0.9,7.3,5.3C119.6,25.9,116.2,27.2,112.5,27.2z"/>
						<path class="st0" d="M92.6,15v-0.2c4.3-0.5,6.9-2.9,6.9-6.7c0-4.6-3.7-6.6-8.9-6.6H78.5v0.2c0.9,1,1.5,2.3,1.5,4.2v19.7
							c0,1.9-0.5,3.2-1.5,4.2v0.2h13c5.7,0,9.5-3,9.5-8C101,17.4,97.4,15.3,92.6,15z M89.4,27.2h-5V4.6h4.8c2.9,0,5.8,0.9,5.8,4.3
							c0,3.4-2.9,4.7-5.9,4.7h-2.4v3h2.6c3.3,0,7.3,0.9,7.3,5.3C96.4,25.9,93.1,27.2,89.4,27.2z"/>
						<path class="st0" d="M153.5,1.5v5.1h0.2c0.8-1.1,2.1-2.1,5-2.1h4.4v21.2c0,1.9-0.5,3.2-1.4,4.2v0.2h7.3V30
							c-0.9-1-1.4-2.3-1.4-4.2V4.6h12.7v21.2c0,1.9-0.6,3.2-1.5,4.2v0.2h7.4V30c-0.9-1-1.5-2.3-1.5-4.2V4.6h4.4
							c2.9,0,4.3,0.9,5.1,2.1h0.2V1.5H153.5z"/>
						<path class="st0" d="M139.9,1c-8.7,0-14.8,6.4-14.8,14.8c0,8.5,6.1,14.8,14.8,14.8c8.7,0,14.8-6.3,14.8-14.8
							C154.7,7.4,148.6,1,139.9,1z M139.9,27.4c-6.2,0-10.1-5.1-10.1-11.6s3.9-11.6,10.1-11.6c6.2,0,10.1,5.1,10.1,11.6
							S146.1,27.4,139.9,27.4z"/>
					</g>
					<path class="st0" d="M65.7,1.5h-4.5l-8.9,23.2c-1.3,3.4-2.2,4.4-3,5.2v0.2h6.3V30c-0.5-0.5-0.6-1.2-0.6-1.9
						c0-1.1,0.4-2.3,0.8-3.3l1.3-3.5h11.3l1.5,4.1c0.3,0.8,0.5,1.6,0.5,2.4c0,0.7-0.2,1.4-0.6,2.2l0,0.2h7.6V30
						c-1.2-1.2-1.8-2.5-2.6-4.4L65.7,1.5z M58.3,18.3l4.5-11.8H63l4.3,11.8H58.3z"/>
				</g>
			</g>
		</g>
	</g>
</g>
<g id="GUIDE">
</g>
</svg>
