<svg width="120" height="100" viewBox="0 0 120 100" fill="none" xmlns="http://www.w3.org/2000/svg">
<g clip-path="url(#clip0_2053_10)">
<path d="M1.93549 15.9355V83.8769L2.68968 83.6134C20.2271 77.2981 40.0543 73.9542 60.0269 73.9542C79.9995 73.9542 100.263 77.3799 117.355 83.6134L118.109 83.886V15.9355H1.93549Z" fill="#14142B"/>
<path d="M118.1 15.9355V83.8769L117.346 83.6043C100.254 77.3799 79.8904 73.9451 60.0178 73.9451C40.1451 73.9451 20.218 77.2799 2.68058 83.6043L1.92638 83.8678V15.9355H118.091M120.036 14H0V86.612L2.58063 85.6942L3.33483 85.4307C20.6632 79.1881 40.2633 75.8897 60.0269 75.8897C79.7905 75.8897 99.8085 79.279 116.692 85.4307L117.455 85.7033L120.045 86.6302V14H120.036Z" fill="white"/>
<path fill-rule="evenodd" clip-rule="evenodd" d="M105.66 41.5873C106.36 41.5873 107.396 41.6963 107.396 40.6877C107.396 39.9153 106.76 39.8245 106.16 39.8245H104.734V41.5964H105.66V41.5873ZM108.005 44.3497H107.269L105.842 42.0598H104.734V44.3497H104.125V39.3883H106.296C107.614 39.3883 108.068 39.879 108.068 40.7059C108.068 41.6782 107.378 42.0416 106.505 42.0689L108.014 44.3587L108.005 44.3497ZM109.513 41.8599C109.513 39.6973 107.941 38.0071 105.778 38.0071C103.616 38.0071 102.026 39.6973 102.026 41.8599C102.026 44.0225 103.607 45.7399 105.778 45.7399C107.95 45.7399 109.513 44.0498 109.513 41.8599ZM101.308 41.8599C101.308 39.4156 103.307 37.4165 105.769 37.4165C108.232 37.4165 110.213 39.4156 110.213 41.8599C110.213 44.3042 108.232 46.3215 105.769 46.3215C103.307 46.3215 101.308 44.3224 101.308 41.8599Z" fill="white"/>
<path fill-rule="evenodd" clip-rule="evenodd" d="M90.0676 57.3346C89.9131 56.0897 91.1853 54.8993 92.1303 54.3996C93.4479 53.6817 94.7654 54.136 94.7563 55.0629C94.7563 55.7444 93.5387 57.3346 92.1666 57.8707C91.3216 58.216 90.1857 58.2432 90.0767 57.3346M55.2019 52.8548C53.6298 54.336 51.4672 56.1442 51.4672 56.1442C51.4672 56.1442 51.6217 54.236 53.6026 51.928C54.7021 50.6467 56.156 50.0925 56.683 50.2833C57.4645 50.6013 55.8924 52.2006 55.2019 52.8548ZM77.6279 37.6073C74.4203 40.6059 71.7215 43.7227 67.1327 47.3846C68.7411 44.4042 72.3848 39.779 75.5743 36.7622C78.0822 34.3452 80.0449 33.3638 80.4084 33.7818C80.8082 34.2634 78.6456 36.6623 77.6279 37.6164M85.3516 39.5246C81.1808 44.5859 76.3557 53.4545 76.3557 53.4545C76.3557 53.4545 75.7015 53.6635 74.7383 53.8725C73.3389 54.1724 75.2108 55.2901 74.9564 56.1987C74.4839 57.9434 74.2749 58.2887 73.9114 59.5426C73.6479 60.4604 75.6561 60.6967 75.9923 59.8879C77.6733 55.8807 78.5275 54.6086 78.5275 54.6086C78.5275 54.6086 83.7069 50.9193 86.1149 49.3383C85.3334 50.9284 83.3253 53.9725 83.3253 53.9725C83.3253 53.9725 82.7982 53.9907 81.6715 54.1451C81.3716 54.1815 81.1081 54.7903 81.1899 54.8902C81.7987 55.7353 82.1803 55.9625 81.8532 56.6894C81.3262 57.8525 81.2444 58.425 80.6447 59.9243C80.0904 61.2964 82.7164 61.0147 83.2616 59.7153C84.7064 56.2623 85.3062 55.5172 85.3062 55.5172L88.4774 54.8175C88.4774 54.8175 87.9231 55.3173 87.3598 56.1442C86.4329 57.489 85.9059 59.5972 88.4956 60.2605C90.0403 60.6694 91.9667 59.5426 93.1207 58.6521C92.5301 60.3604 93.3661 61.9052 94.7836 62.5958C97.8367 64.086 102.689 59.8698 103.97 58.0615C102.108 59.0338 98.8635 60.8511 96.8735 60.9147C96.3011 60.9238 95.7377 60.7693 95.4833 60.4059C95.2289 60.0697 95.1652 59.7244 95.1925 59.261C95.3197 56.7621 98.6545 53.0275 99.1543 52.5095C99.4542 52.0007 98.9181 51.2374 97.7822 51.7826C96.9826 52.1642 96.392 52.773 96.392 52.773C96.392 52.773 95.4924 51.8462 94.1657 51.7553C92.6391 51.6463 91.158 52.355 90.2402 53.0729C90.2402 53.0729 87.705 53.5454 86.2603 53.709C89.5133 47.2574 94.093 42.187 94.62 41.3147C94.8109 40.9876 94.9926 40.5696 94.5201 40.5151C93.9476 40.4424 93.2116 40.5787 92.7209 40.9966C90.4402 42.923 87.2598 47.3392 87.2598 47.3392C87.2598 47.3392 82.4257 50.574 80.0904 52.0915C82.6619 47.212 85.2607 42.8322 89.0135 37.9526C89.2134 37.6982 89.377 37.5073 89.1407 37.4619C88.7682 37.371 87.7868 37.58 87.5142 37.6891C86.6056 38.0616 86.0331 38.6886 85.3698 39.4973M75.5016 48.3932C74.8019 47.1756 73.1481 47.6663 72.2849 49.3837C71.8124 50.3287 72.0486 51.4827 73.1209 51.6463C74.6565 51.8735 76.1558 49.5654 75.5016 48.3932ZM39.1547 29.1294C32.267 36.4351 25.4701 44.9675 19.6364 53.3182C17.2284 56.753 14.6751 60.9965 13.0213 64.086C12.9123 64.2768 13.4847 64.6221 13.7301 64.2677C18.5188 57.4163 23.1076 51.1647 27.8872 45.1402C31.3129 40.824 37.0193 34.227 41.0266 30.3743C38.9821 33.5546 34.6113 41.3692 31.5309 46.5577C28.5687 51.5736 25.1702 57.3618 24.7886 58.4068C24.5433 59.0883 25.5337 60.1787 26.2697 59.2973C29.1139 55.8353 30.8585 53.609 33.2756 50.5922C35.0293 48.4114 39.1638 43.9498 41.4082 42.0689C40.754 43.3592 37.5373 47.9843 35.6836 51.51C34.5296 53.6908 32.167 57.8162 32.1216 58.3886C32.0762 58.9702 32.9667 60.2514 33.6209 59.7607C36.1743 57.0892 43.271 49.4564 46.4877 46.6304C42.8257 51.2737 38.9094 58.9247 39.2456 61.2782C39.3546 62.0506 39.9634 64.4131 42.7894 63.7407C45.2882 63.141 49.6226 59.5426 49.6226 59.5426C49.8861 60.1151 50.9856 60.8057 51.7671 60.7784C54.0024 60.7148 56.4376 59.052 59.9088 56.7348C59.0274 59.2337 58.4095 60.633 58.5821 61.3418C58.7093 61.887 59.0455 62.3959 60.0542 62.3868C60.3086 62.3868 61.0355 62.3868 63.2527 61.0419C64.8429 59.997 68.214 57.6163 68.8955 57.1528C68.2867 58.2614 67.1418 59.9152 67.3235 60.3968C67.5961 61.151 69.0773 60.9874 69.9133 60.206C70.3222 59.8243 70.7765 58.952 71.5216 57.5072C72.3576 55.8898 72.9482 54.3178 72.3485 53.927C71.4671 53.3637 69.8315 54.1815 68.0868 55.3082C65.3154 57.0983 62.3258 59.7153 61.8352 59.2246C60.8447 59.2882 64.7611 52.6913 64.7611 52.6913C71.9123 45.9398 77.1281 42.2052 80.6174 38.1525C81.1354 37.5437 82.8527 35.69 84.243 33.4728C84.87 32.4915 85.0336 32.0371 85.1517 31.3466C85.2698 30.6741 84.5338 30.5742 84.0976 30.4197C82.8164 29.9745 79.3453 31.5828 77.5188 32.8822C74.1931 35.2448 72.5757 36.6078 69.9042 39.8699C67.1055 43.2865 65.8424 45.1038 62.553 51.5282C62.4258 51.7644 59.7997 53.9361 58.4276 54.8993C56.8466 56.017 52.803 59.1428 51.7762 57.9525C53.9842 56.3169 57.5553 53.5818 59.1364 51.3919C60.0814 50.0925 60.2359 49.0747 59.3545 48.5659C58.2096 47.9116 55.7834 48.1842 53.1483 49.7744C50.5949 51.3101 48.8957 54.2269 48.3505 57.6253C48.305 57.8889 43.3164 62.0324 42.0715 61.4963C41.3628 61.1964 41.908 59.1065 45.1338 53.2455C48.3414 47.4028 52.8211 41.2965 53.2846 40.5968C54.2023 39.1884 52.594 39.2338 51.9488 39.3338C51.649 39.3792 49.2864 41.0693 47.7507 42.3051C44.7976 44.8494 40.7631 48.784 38.7095 50.9648C41.172 46.7849 43.0893 43.9044 44.6158 41.2147C46.8057 37.3529 48.9775 34.645 47.9507 34.1725C46.4513 33.7636 44.6431 35.6173 41.9898 38.2706C39.6181 40.6423 36.3197 44.2133 34.575 45.7853C36.1107 43.7227 38.8094 39.3701 40.8357 36.0171C44.7067 29.6292 47.1783 24.9768 46.5876 24.4952C45.1883 23.2412 41.9625 26.1035 39.1456 29.1021" fill="white"/>
</g>
<defs>
<clipPath id="clip0_2053_10">
<rect width="120" height="100" fill="white"/>
</clipPath>
</defs>
</svg>
