<svg width="120" height="100" viewBox="0 0 120 100" fill="none" xmlns="http://www.w3.org/2000/svg">
<rect width="120" height="100" fill="white"/>
<path d="M60.9152 12.0031C45.8452 11.7767 33.4546 23.8024 33.2155 38.8596C32.9891 53.9294 45.0149 66.3198 60.0724 66.5588C75.1424 66.7853 87.533 54.7596 87.772 39.7024C88.011 24.6326 75.9852 12.2421 60.9152 12.0031ZM74.9034 53.0614H46.0842C44.5747 53.0614 43.8199 51.2375 44.9017 50.1682L45.4175 49.6525L66.5507 28.7963H48.9397C48.8139 28.7963 48.7636 28.6453 48.839 28.5699L51.9336 25.5006H70.6012C72.1108 25.5006 72.8655 27.3245 71.7837 28.3938L71.3686 28.7963L50.2228 49.6777H70.7899L62.7518 41.6396L65.1544 39.237L75.5826 49.6777L76.0984 50.1934C77.1551 51.2626 76.4003 53.074 74.9034 53.074V53.0614Z" fill="black"/>
<path d="M103.433 81.1737V79.1484H96.8039C93.4704 79.1484 90.7659 81.6643 90.7659 84.7713V85.4254C90.7659 88.5325 93.4704 91.0483 96.8039 91.0483H103.433V89.0356H97.0681C94.7032 89.0356 92.7786 87.3626 92.7786 85.3122V84.8845C92.7786 82.8215 94.7032 81.1611 97.0681 81.1611H103.433V81.1737Z" fill="black"/>
<path d="M9.03807 79.1602C5.70455 79.1602 3 81.676 3 84.783V91.06H5.02527V84.8962C5.02527 82.8333 6.9499 81.1728 9.31481 81.1728H13.9188C13.9188 81.1728 15.0384 81.1728 15.0636 81.1728V79.1602H9.03807Z" fill="black"/>
<path d="M68.362 79.1602C65.0285 79.1602 62.324 81.676 62.324 84.783V91.06H64.3492V84.8962C64.3492 82.8333 66.2739 81.1728 68.6388 81.1728H74.2366C74.2366 81.1728 74.3624 81.1728 74.3875 81.1728V79.1602H68.3746H68.362Z" fill="black"/>
<path d="M107.081 86.673L114.591 79.2891H117.459L112.025 84.7232L118 91.0002H115.232L110.578 86.1573L107.081 89.4782V86.673Z" fill="black"/>
<path d="M107.333 75.9297H105.308V91.0624H107.333V75.9297Z" fill="black"/>
<path d="M25.064 79.2104C24.6615 79.1098 23.8313 79.0469 22.8627 79.0469C21.8941 79.0469 21.0638 79.1098 20.6613 79.2104C17.8813 79.7136 15.7805 81.9904 15.7805 84.7326V85.3868C15.7805 88.129 17.8813 90.4058 20.6613 90.909C21.0638 91.0096 21.8941 91.0725 22.8627 91.0725C23.8313 91.0725 24.6615 91.0096 25.064 90.909C27.8441 90.4058 29.9448 88.129 29.9448 85.3868V84.7326C29.9448 81.9904 27.8441 79.7136 25.064 79.2104ZM27.9195 85.2735V85.3868C27.8566 87.1604 26.3597 88.6322 24.4099 88.9341C24.0577 88.997 23.5042 89.0473 22.8752 89.0473C22.2463 89.0473 21.6802 89.0095 21.3406 88.9341C19.3782 88.6196 17.8938 87.1604 17.8309 85.3868V84.8459C17.8309 83.0219 19.3405 81.4998 21.3406 81.1853C21.6928 81.1224 22.2463 81.0721 22.8752 81.0721C23.5042 81.0721 24.0703 81.1224 24.4099 81.1853C26.41 81.4998 27.9195 83.0219 27.9195 84.8459V85.2735Z" fill="black"/>
<path d="M55.921 79.2104C55.5184 79.1098 54.6882 79.0469 53.7196 79.0469C52.751 79.0469 51.9208 79.1098 51.5182 79.2104C48.7382 79.7136 46.6375 81.9904 46.6375 84.7326V85.3868C46.6375 88.129 48.7382 90.4058 51.5182 90.909C51.9208 91.0096 52.751 91.0725 53.7196 91.0725C54.6882 91.0725 55.5184 91.0096 55.921 90.909C58.701 90.4058 60.8018 88.129 60.8018 85.3868V84.7326C60.8018 81.9904 58.701 79.7136 55.921 79.2104ZM58.7765 85.2735V85.3868C58.7136 87.1604 57.2166 88.6322 55.2669 88.9341C54.9146 88.997 54.3611 89.0473 53.7322 89.0473C53.1032 89.0473 52.5371 89.0095 52.1975 88.9341C50.2351 88.6196 48.7508 87.1604 48.6879 85.3868V84.8459C48.6879 83.0219 50.1974 81.4998 52.1975 81.1853C52.5497 81.1224 53.1032 81.0721 53.7322 81.0721C54.3611 81.0721 54.9272 81.1224 55.2669 81.1853C57.267 81.4998 58.7765 83.0219 58.7765 84.8459V85.2735Z" fill="black"/>
<path d="M84.4007 79.2104C83.9982 79.1098 83.1679 79.0469 82.1993 79.0469C81.2307 79.0469 80.4005 79.1098 79.998 79.2104C77.2179 79.7136 75.1172 81.9904 75.1172 84.7326V85.3868C75.1172 88.129 77.2179 90.4058 79.998 90.909C80.4005 91.0096 81.2307 91.0725 82.1993 91.0725C83.1679 91.0725 83.9982 91.0096 84.4007 90.909C87.1807 90.4058 89.2815 88.129 89.2815 85.3868V84.7326C89.2815 81.9904 87.1807 79.7136 84.4007 79.2104ZM87.2562 85.2735V85.3868C87.1933 87.1604 85.6964 88.6322 83.7466 88.9341C83.3944 88.997 82.8409 89.0473 82.2119 89.0473C81.5829 89.0473 81.0169 89.0095 80.6772 88.9341C78.7149 88.6196 77.2305 87.1604 77.1676 85.3868V84.8459C77.1676 83.0219 78.6771 81.4998 80.6772 81.1853C81.0295 81.1224 81.5829 81.0721 82.2119 81.0721C82.8409 81.0721 83.4069 81.1224 83.7466 81.1853C85.7467 81.4998 87.2562 83.0219 87.2562 84.8459V85.2735Z" fill="black"/>
<path d="M40.3858 79.2159C39.9958 79.1153 39.2033 79.0524 38.2599 79.0524C37.3164 79.0524 36.5239 79.1153 36.134 79.2159C35.1151 79.4046 34.1968 79.8574 33.442 80.4864V75.9453H31.4167V85.3922C31.4167 88.1345 33.442 90.4113 36.134 90.9145C36.5239 91.0151 37.3164 91.078 38.2599 91.078C39.2033 91.078 39.9958 91.0151 40.3858 90.9145C43.0778 90.4113 45.103 88.1345 45.103 85.3922V84.7381C45.103 81.9959 43.0778 79.7191 40.3858 79.2159ZM43.1532 85.279V85.3922C43.0903 87.1659 41.6437 88.6377 39.7568 88.9396C39.4172 89.0025 38.8763 89.0528 38.2725 89.0528C37.6687 89.0528 37.1278 89.015 36.7881 88.9396C34.9012 88.6251 33.4546 87.1659 33.4043 85.3922V84.8513C33.4043 83.0274 34.8635 81.5053 36.7881 81.1908C37.1278 81.1279 37.6687 81.0776 38.2725 81.0776C38.8763 81.0776 39.4172 81.1279 39.7568 81.1908C41.6815 81.5053 43.1532 83.0274 43.1532 84.8513V85.279Z" fill="black"/>
</svg>
