<svg width="32" height="34" viewBox="0 0 32 34" fill="none" xmlns="http://www.w3.org/2000/svg">
<path fill-rule="evenodd" clip-rule="evenodd" d="M25.5613 2.09013C25.0505 1.33171 23.9416 0.848805 23.1099 1.03989C21.9317 1.30949 21.2236 2.17457 21.1678 3.41441C21.1332 4.14173 21.2959 4.82461 21.4782 5.48527C21.3893 5.46453 21.3034 5.44824 21.2266 5.43491C19.6566 5.16235 17.9887 5.00681 16.2696 4.9683C15.9894 4.96237 15.7091 4.95941 15.4289 4.95941C13.5998 4.95941 12.1037 5.1105 10.719 5.43491C10.6648 5.44824 10.594 5.46453 10.5201 5.48823C10.6256 5.11198 10.7296 4.72685 10.7883 4.32689C10.9465 3.28702 10.7597 2.45601 10.2188 1.78795C9.81803 1.29319 9.19728 1.00879 8.51325 1.00879C7.69512 1.00879 6.92672 1.40133 6.46116 2.05754C5.79069 3.00113 5.47127 4.12988 5.51346 5.41417C5.56318 6.98879 5.74247 8.39158 6.05888 9.70105C6.55306 11.7423 7.18135 13.825 7.92414 15.8914C8.11549 16.4217 8.29779 16.9564 8.4801 17.4897C8.63529 17.946 8.79048 18.4007 8.95169 18.8555L9.56039 20.5693V20.559C10.0305 21.9899 10.6678 23.4594 11.4046 24.4133C11.5296 24.5748 11.6622 24.7303 11.7963 24.8873C12.1187 25.2665 12.4231 25.6235 12.5828 26.0487C12.6732 26.2842 12.8706 26.81 13.3753 27.0796C13.3361 27.253 13.2743 27.3404 13.0227 27.4011C12.7108 27.4766 12.4005 27.5477 12.0871 27.6174C11.1876 27.8129 10.4915 28.3936 9.95664 29.3949C9.50163 30.2467 9.77885 31.2658 10.6151 31.8183C10.9691 32.0509 11.3624 32.2375 11.8159 32.3886C13.0498 32.8019 14.3682 33.0019 15.8477 33.0019C16.5574 33.0019 17.3032 32.956 18.1304 32.8626C19.3899 32.7204 20.425 32.3945 21.2944 31.8672C22.2466 31.291 22.5404 30.2437 22.01 29.3179C21.653 28.6928 21.0382 27.8336 19.8359 27.5966C19.5948 27.5492 19.3568 27.4855 19.1187 27.4203L18.7858 27.3315C18.73 27.3181 18.7014 27.2989 18.6306 27.0782C18.6502 27.0678 18.6697 27.0574 18.6893 27.0456C18.8656 26.9448 18.9575 26.8012 19.0148 26.6945C19.3327 26.4086 19.5014 26.0664 19.6521 25.7598C19.747 25.5717 19.8344 25.3939 19.9745 25.2236C20.7113 24.3289 21.4752 23.4016 21.9799 22.258C22.5645 20.9367 22.9773 19.528 23.1852 18.4022C23.7924 16.7624 24.3966 14.9834 25.0294 12.9629C25.9018 10.1765 26.3478 7.99459 26.4743 5.88967C26.5647 4.38022 26.2664 3.13741 25.5613 2.09013ZM22.1456 7.78749C22.2631 7.78749 22.3686 7.73565 22.4605 7.63195C22.9261 7.10906 22.8342 6.44543 22.7603 5.91365L22.7317 5.70775C22.6925 5.3789 22.6278 5.05301 22.563 4.72713C22.4922 4.37902 22.4259 4.04869 22.3897 3.71392C22.3264 3.10659 22.5253 2.70515 22.9833 2.51999C23.3916 2.35557 23.916 2.53184 24.2896 2.95697C24.9541 3.7154 25.058 4.66195 25.0731 5.57295C25.1017 7.50901 24.7627 9.51617 24.0109 11.8922C23.9506 12.0788 23.8858 12.264 23.8256 12.4491L23.8497 12.1158C23.8828 11.6774 23.916 11.2389 23.9551 10.8019C23.9838 10.4923 23.9039 10.0717 23.3675 9.82428C22.9005 9.60801 22.4394 9.36804 21.9965 9.10881C21.8262 9.00956 21.6921 8.89995 21.6002 8.72367C21.8187 8.46889 21.9859 8.11634 22.108 7.78157C22.1215 7.78305 22.1321 7.78749 22.1456 7.78749ZM9.44983 4.6838C9.3745 4.9934 9.29615 5.31188 9.263 5.64665C9.22986 6.0066 9.2178 6.3873 9.22684 6.84502C9.23438 7.22423 9.34738 7.49975 9.55982 7.6627C9.65173 7.73232 9.74815 7.76787 9.84609 7.76787C9.85513 7.76787 9.85965 7.76491 9.86718 7.76491C9.98169 8.12042 10.1459 8.51592 10.3614 8.80182C10.286 8.90403 10.1715 9.01364 9.98922 9.11733L9.86869 9.18547C9.47695 9.40915 9.1048 9.61949 8.7206 9.77947C7.98836 10.0831 8.03808 10.7097 8.05465 10.9156L8.09684 11.477C8.12245 11.8014 8.14806 12.1318 8.17518 12.4606C7.80153 11.3111 7.46253 10.1409 7.25159 8.95143C6.95629 7.2746 6.74083 5.76071 7.09942 4.2172C7.26666 3.49877 7.55444 3.01438 8.00644 2.69294C8.36955 2.43519 8.7206 2.38631 9.07166 2.54925C9.43778 2.7196 9.61557 3.02031 9.63063 3.49432C9.64419 3.88983 9.54927 4.27645 9.44983 4.6838Z" fill="#DEE5FD"/>
</svg>
