<svg width="32" height="32" viewBox="0 0 32 32" fill="none" xmlns="http://www.w3.org/2000/svg">
<path fill-rule="evenodd" clip-rule="evenodd" d="M16.9983 15.3312C18.866 15.3312 20.5858 12.2605 20.5858 12.2605C22.6821 12.2605 24.2447 9.65651 24.2447 2H20.5132V3.73428L20.3864 3.83409C20.3864 3.83409 17.738 3.34413 16.001 3.34413C14.2627 3.34413 11.6156 3.83409 11.6156 3.83409L11.4887 3.73428V2H7.75586C7.75586 9.65651 9.31849 12.2605 11.4161 12.2605C11.4161 12.2605 13.1346 15.3312 15.0037 15.3312V16.4524C15.0037 16.4524 15.1595 17.0201 15.1595 17.6436C15.1595 19.7706 10.8362 21.5113 10.8362 22.4848C10.8362 23.4595 10.8362 26.6403 10.8362 26.6403C10.8362 26.6403 10.0027 26.7699 10.0027 27.7965C10.0027 28.8231 12.7713 30 16.001 30C19.2306 30 21.9979 28.8231 21.9979 27.7965C21.9979 26.7699 21.1644 26.6403 21.1644 26.6403C21.1644 26.6403 21.1644 23.4595 21.1644 22.4848C21.1644 21.5113 16.8411 19.7706 16.8411 17.6436C16.8411 17.0201 16.9983 16.4524 16.9983 16.4524V15.3312ZM20.5854 4.70495L20.6012 4.70755L21.02 4.37961L21.3357 4.13334V2.82031H23.4148C23.3263 8.38609 22.3303 11.4373 20.5854 11.4386V4.70495ZM11.4147 11.4386C9.66975 11.4373 8.67379 8.38609 8.58529 2.82031H10.6644V4.13334L10.9801 4.37961L11.1069 4.47812L11.3988 4.70755L11.4147 4.70495V11.4386Z" fill="#DEE5FD"/>
</svg>
