<svg width="40" height="40" viewBox="0 0 40 40" fill="none" xmlns="http://www.w3.org/2000/svg">
<path fill-rule="evenodd" clip-rule="evenodd" d="M22.6647 22.9237C22.0184 23.1322 21.339 23.2669 20.6363 23.3179L20.6363 32.7273H22.6647V22.9237ZM23.9375 34H22.6647H20.6363H19.3636H17.3352H16.0625H14.0339H12.7612H6.55664V32.7273H12.7612L12.7612 19.4449C11.8562 18.0757 11.3294 16.4346 11.3294 14.6705C11.3294 9.88189 15.2113 6 19.9998 6C24.7884 6 28.6703 9.88189 28.6703 14.6705C28.6703 16.4345 28.1435 18.0755 27.2386 19.4447L27.2386 32.7273H33.443V34H27.2386H25.9659H23.9375ZM25.9659 32.7273H23.9375L23.9375 22.3973C24.6823 22.0169 25.3649 21.5321 25.9659 20.962V32.7273ZM14.0339 32.7273H16.0625L16.0625 22.3974C15.3176 22.0171 14.6349 21.5322 14.0339 20.9621L14.0339 32.7273ZM17.3352 32.7273H19.3636L19.3636 23.3179C18.6609 23.267 17.9815 23.1323 17.3352 22.9238L17.3352 32.7273Z" fill="#DEE5FD"/>
</svg>
