<svg width="32" height="32" viewBox="0 0 32 32" fill="none" xmlns="http://www.w3.org/2000/svg">
<path fill-rule="evenodd" clip-rule="evenodd" d="M22.456 1.18053C22.4014 0.95074 22.3555 0.758288 22.3109 0.568709C21.7292 0.541421 21.1762 0.515569 20.6232 0.488281C19.082 0.488281 12.9171 0.488281 11.3759 0.488281C10.8243 0.515569 10.2713 0.541421 9.68961 0.568709C9.64365 0.758288 9.59769 0.95074 9.54311 1.18053C7.79649 1.18053 6.047 1.18053 4.28027 1.18053C4.48711 1.88284 4.70113 2.53919 4.87062 3.20702C5.31733 4.975 5.69509 6.76307 6.1892 8.51668C7.02947 11.5011 8.90536 13.7775 11.1719 15.7523C11.7968 16.2966 12.4862 16.7648 13.167 17.2388C13.3897 17.3939 13.5276 17.5346 13.4974 17.8233C13.473 18.0531 13.5161 18.2915 13.4859 18.5199C13.4313 18.9493 13.5348 19.2337 14.0533 19.225C13.6985 20.3123 13.1096 21.0993 12.0122 21.4138C11.4434 21.5761 10.8818 21.77 10.3231 21.9696C9.61492 22.2239 9.24721 22.7481 9.21992 23.5035C9.17252 24.809 9.12512 26.1145 9.07916 27.4201C9.06911 27.6915 9.11363 27.9672 8.80625 28.141C8.71432 28.1913 8.70427 28.3909 8.64682 28.5489C8.338 28.5963 8.01625 28.6724 7.69163 28.6868C7.35409 28.7026 7.13863 28.7888 7.22482 29.201C7.04384 29.2598 6.88296 29.3115 6.69911 29.3719C6.69911 29.695 6.69911 30.0225 6.69911 30.4232C7.63849 30.607 10.583 31.5118 15.9996 31.5118C21.4175 31.5118 24.3606 30.607 25.3014 30.4232C25.3014 30.0225 25.3014 29.695 25.3014 29.3719C25.1176 29.3115 24.9567 29.2598 24.7757 29.201C24.8619 28.7888 24.6465 28.7026 24.3075 28.6868C23.9829 28.6724 23.6625 28.5963 23.3523 28.5489C23.2963 28.3909 23.2848 28.1913 23.1943 28.141C22.8869 27.9672 22.93 27.6915 22.9214 27.4201C22.874 26.1145 22.828 24.809 22.7806 23.5035C22.7519 22.7481 22.3856 22.2239 21.6761 21.9696C21.1188 21.77 20.5571 21.5761 19.9883 21.4138C18.8895 21.0993 18.302 20.3123 17.9473 19.225C18.4644 19.2337 18.5692 18.9493 18.5132 18.5199C18.4845 18.2915 18.5276 18.0531 18.5031 17.8233C18.473 17.5346 18.6094 17.3939 18.8335 17.2388C19.5129 16.7648 20.2038 16.2966 20.8286 15.7523C23.0938 13.7775 24.9711 11.5011 25.8113 8.51668C26.3055 6.76307 26.6832 4.975 27.1299 3.20702C27.298 2.53919 27.5134 1.88284 27.7203 1.18053C25.9521 1.18053 24.2041 1.18053 22.456 1.18053ZM13.4855 16.7128C13.1494 16.4974 12.8736 16.3739 12.661 16.1785C10.6515 14.3445 9.08591 12.1758 8.18962 9.58059C7.48437 7.53112 6.81933 5.45293 6.75469 3.24548C6.75182 3.15931 6.75469 3.07313 6.75469 2.94531C7.66104 2.94531 8.52429 2.94531 9.43638 2.94531C9.43638 3.16649 9.45649 3.36612 9.43351 3.56145C9.29131 4.78079 9.55847 5.95848 9.7768 7.14048C9.93911 8.02518 10.4447 8.73323 10.9848 9.41399C11.9471 10.6276 12.6696 11.9676 13.0172 13.4928C13.1264 13.9711 13.1523 14.4694 13.2269 14.9563C13.2901 15.3685 13.1609 15.818 13.4754 16.19C13.5429 16.269 13.4855 16.4572 13.4855 16.7128ZM25.2452 3.24548C25.1791 5.45293 24.5155 7.53112 23.8088 9.58059C22.9139 12.1758 21.3469 14.3445 19.3388 16.1785C19.1263 16.3739 18.8505 16.4974 18.5144 16.7128C18.5144 16.4572 18.4569 16.269 18.523 16.19C18.839 15.818 18.7097 15.3685 18.7729 14.9563C18.8462 14.4694 18.8735 13.9711 18.9826 13.4928C19.3302 11.9676 20.0513 10.6276 21.0136 9.41399C21.5552 8.73323 22.0608 8.02518 22.2231 7.14048C22.44 5.95848 22.7085 4.78079 22.5664 3.56145C22.5434 3.36612 22.5635 3.16649 22.5635 2.94531C23.4741 2.94531 24.3388 2.94531 25.2452 2.94531C25.2452 3.07313 25.248 3.15931 25.2452 3.24548Z" fill="#DEE5FD"/>
</svg>
