<svg width="32" height="32" viewBox="0 0 32 32" fill="none" xmlns="http://www.w3.org/2000/svg">
<path d="M24.3554 30.7048C24.3554 30.7048 24.4788 30.4139 24.4965 30.3447C24.5141 30.2754 24.2531 28.8211 24.2531 28.8211C24.2425 28.8142 24.2072 28.8072 24.1543 28.8107V24.0392H24.1613L24.1543 24.0288V23.9977H24.1366L22.5456 21.1445H20.9051V19.7733H20.0338C20.0196 19.195 19.6422 18.731 19.3282 18.4402C19.1024 18.229 18.9119 18.1043 18.9119 18.1043H18.8202C17.0245 17.8896 17.1021 16.1549 17.155 15.6909C17.8747 15.4139 18.3651 14.8875 18.3651 14.2816C18.3651 13.7518 17.9911 13.2809 17.4161 12.9866C20.2631 12.6507 21.4908 11.553 22.0094 10.5697C24.1684 8.51632 25.2091 8.51286 25.3326 8.34319C25.4208 7.09319 24.0696 7.3148 24.0696 7.3148L22.3198 8.59943C22.3198 8.59943 22.3269 8.62713 22.3127 8.69984C22.0587 8.17352 21.4026 7.8238 21.3638 7.80302C21.3602 6.35911 21.205 2.294 23.6498 0.230285C23.1418 0.185271 8.35306 0.140257 8.3072 0.185271C8.3072 0.185271 11.0095 2.30439 10.6497 7.84458H10.6426C10.6426 7.84458 10.0817 7.92422 9.65484 8.66175C9.64778 8.61328 9.64778 8.58904 9.65484 8.59943L7.9015 7.3148C7.9015 7.3148 6.55386 7.09319 6.64206 8.34319C6.76553 8.51286 7.85211 8.51286 10.1099 10.7082C10.1135 10.7185 10.1135 10.7082 10.1099 10.6805C11.0378 12.3425 13.1333 12.8169 14.5797 12.9866C14.0047 13.2809 13.6342 13.7483 13.6342 14.2781C13.6342 14.8771 14.1105 15.3965 14.8161 15.677C14.8549 16.1791 14.8866 18.0905 13.158 18.0939C12.9922 18.0939 13.1721 18.0939 13.5531 18.1008H13.1368C13.1368 18.1008 12.9498 18.2116 12.7241 18.4125C12.3995 18.6999 11.9903 19.1777 11.9832 19.7733H11.0942V21.1445H9.422L7.87327 23.9977V24.0046V28.8107C7.80272 28.8072 7.76038 28.8107 7.74627 28.8211C7.74627 28.8211 7.48521 30.2789 7.50285 30.3447C7.52049 30.4139 7.64396 30.7048 7.64396 30.7048C7.64396 30.7048 6.31397 30.9091 6.52211 31.56C6.75848 31.8821 7.59105 31.8855 7.79919 31.7332C8.57884 30.9818 9.33733 30.4416 9.63367 30.2408H22.3657C22.6585 30.4416 23.4205 30.9818 24.2001 31.7332C24.4118 31.889 25.2444 31.8855 25.4772 31.56C25.6889 30.9091 24.3554 30.7048 24.3554 30.7048Z" fill="#DEE5FD"/>
</svg>
