<svg width="32" height="32" viewBox="0 0 32 32" fill="none" xmlns="http://www.w3.org/2000/svg">
<path fill-rule="evenodd" clip-rule="evenodd" d="M15.9995 32C12.6624 32 9.95508 31.329 9.95508 30.8594C9.95508 30.8283 9.96841 30.7986 9.99212 30.7675L11.7614 26.279C11.7614 26.1798 11.9363 26.085 12.2445 26.0035C12.9943 24.2333 16.9983 13.6773 10.4811 3.52412L10.9242 3.07231C10.9242 3.07231 11.4191 3.73003 12.0489 4.96102C11.9926 4.68846 11.963 4.40552 11.963 4.11517C11.963 1.84279 13.7693 0 15.9936 0C18.0193 0 19.6982 1.52875 19.9812 3.51967L20.002 3.53449C20.0568 3.42042 20.0879 3.36117 20.0879 3.36117L20.691 2.74641C21.2393 3.03527 21.4409 3.51227 21.4409 3.51227C14.6051 14.5053 19.0595 24.2318 20.0361 26.0968C20.1665 26.1546 20.2376 26.2153 20.2376 26.279L22.0084 30.7675C22.0306 30.7986 22.044 30.8283 22.044 30.8594C22.044 31.329 19.3381 32 15.9995 32ZM15.7629 8.22647C14.57 8.15685 13.5164 7.55839 12.8214 6.65625C14.3907 10.5077 15.9199 17.2568 12.937 25.8693C13.4897 25.7878 14.204 25.7286 15.0056 25.7019C15.3568 23.5065 15.9748 18.1174 15.7629 8.22647Z" fill="#DEE5FD"/>
</svg>
